<svg xmlns="http://www.w3.org/2000/svg" viewBox="0 0 64 64" width="64" height="64">
  <defs>
    <radialGradient id="pearl" cx="38%" cy="30%" r="75%">
      <stop offset="0%" stop-color="#ffffff" />
      <stop offset="45%" stop-color="#E6FBF6" />
      <stop offset="100%" stop-color="#BDE5FB" />
    </radialGradient>
    <linearGradient id="ring" x1="0" y1="0" x2="1" y2="1">
      <stop offset="0%" stop-color="#0EA5E9" />
      <stop offset="100%" stop-color="#2563EB" />
    </linearGradient>
  </defs>
  <rect width="64" height="64" rx="16" fill="url(#ring)" />
  <!-- Tooth silhouette -->
  <path
    d="M32 13c-6 0-9 3-13 3s-7-2-7 4c0 7 3 11 5 18 1.5 5 2 13 5 13 2.4 0 2.6-7 4-11 .6-1.8 4-1.8 4.6 0 1.4 4 1.6 11 4 11 3 0 3.5-8 5-13 2-7 5-11 5-18 0-6-3-4-7-4s-7-3-13-3z"
    fill="url(#pearl)"
  />
  <!-- Pearl shine highlight -->
  <ellipse cx="26" cy="26" rx="4.5" ry="6" fill="#ffffff" opacity="0.85" />
</svg>
