<svg xmlns="http://www.w3.org/2000/svg" viewBox="0 0 400 400" width="400" height="400" role="img" aria-label="Glossy tooth illustration">
  <defs>
    <radialGradient id="enamel" cx="40%" cy="30%" r="80%">
      <stop offset="0%" stop-color="#ffffff" />
      <stop offset="55%" stop-color="#F1F9FF" />
      <stop offset="100%" stop-color="#CDE7FB" />
    </radialGradient>
    <radialGradient id="glow" cx="50%" cy="45%" r="60%">
      <stop offset="0%" stop-color="#5EEAD4" stop-opacity="0.35" />
      <stop offset="100%" stop-color="#5EEAD4" stop-opacity="0" />
    </radialGradient>
    <filter id="soft" x="-20%" y="-20%" width="140%" height="140%">
      <feDropShadow dx="0" dy="18" stdDeviation="22" flood-color="#2563EB" flood-opacity="0.22" />
    </filter>
  </defs>
  <circle cx="200" cy="205" r="150" fill="url(#glow)" />
  <path
    filter="url(#soft)"
    d="M200 70c-38 0-56 19-81 19s-44-12-44 25c0 44 19 69 31 112 9 31 12 81 31 81 15 0 16-44 25-69 4-11 25-11 29 0 9 25 10 69 25 69 19 0 22-50 31-81 12-43 31-68 31-112 0-37-19-25-44-25s-44-19-81-19z"
    fill="url(#enamel)"
    stroke="#BDE5FB"
    stroke-width="2"
  />
  <ellipse cx="150" cy="150" rx="26" ry="38" fill="#ffffff" opacity="0.85" />
  <ellipse cx="250" cy="200" rx="10" ry="20" fill="#ffffff" opacity="0.5" />
</svg>
